# Blender v2.82 (sub 7) OBJ File: ''
# www.blender.org
mtllib test.mtl
o Cube
v 1.000000 1.000000 -1.000000
v 1.000000 -1.000000 -1.000000
v 1.000000 1.000000 1.000000
v 1.000000 -1.000000 1.000000
v -1.000000 1.000000 -1.000000
v -1.000000 -1.000000 -1.000000
v -1.000000 1.000000 1.000000
v -1.000000 -1.000000 1.000000
v -1.000000 -1.000000 0.000000
v 1.000000 1.000000 0.000000
v -1.000000 1.000000 0.000000
v 1.000000 -1.000000 0.000000
v -0.017030 -1.000000 -1.000000
v -0.017030 1.000000 1.000000
v -0.017030 -1.000000 1.000000
v -0.017030 1.000000 -1.000000
v -0.017030 -1.000000 0.000000
v -0.017030 1.000000 0.000000
vt 0.752129 0.625000
vt 0.875000 0.625000
vt 0.875000 0.750000
vt 0.752129 0.750000
vt 0.375000 0.877129
vt 0.625000 0.877129
vt 0.625000 1.000000
vt 0.375000 1.000000
vt 0.247871 0.625000
vt 0.375000 0.625000
vt 0.375000 0.750000
vt 0.247871 0.750000
vt 0.625000 0.625000
vt 0.625000 0.750000
vt 0.375000 0.372871
vt 0.625000 0.372871
vt 0.625000 0.500000
vt 0.375000 0.500000
vt 0.247871 0.500000
vt 0.752129 0.500000
vt 0.875000 0.500000
vt 0.125000 0.500000
vt 0.125000 0.625000
vt 0.375000 0.250000
vt 0.625000 0.250000
vt 0.125000 0.750000
vt 0.375000 0.125000
vt 0.625000 0.125000
vt 0.375000 0.000000
vt 0.625000 0.000000
vn 0.0000 1.0000 0.0000
vn 0.0000 0.0000 1.0000
vn 0.0000 -1.0000 0.0000
vn 1.0000 0.0000 0.0000
vn 0.0000 0.0000 -1.0000
vn -1.0000 0.0000 0.0000
usemtl Material
s off
f 18/1/1 11/2/1 7/3/1 14/4/1
f 15/5/2 14/6/2 7/7/2 8/8/2
f 17/9/3 12/10/3 4/11/3 15/12/3
f 12/10/4 10/13/4 3/14/4 4/11/4
f 13/15/5 16/16/5 1/17/5 2/18/5
f 2/18/4 1/17/4 10/13/4 12/10/4
f 13/19/3 2/18/3 12/10/3 17/9/3
f 16/20/1 5/21/1 11/2/1 18/1/1
f 1/17/1 16/20/1 18/1/1 10/13/1
f 6/22/3 13/19/3 17/9/3 9/23/3
f 6/24/5 5/25/5 16/16/5 13/15/5
f 9/23/3 17/9/3 15/12/3 8/26/3
f 4/11/2 3/14/2 14/6/2 15/5/2
f 10/13/1 18/1/1 14/4/1 3/14/1
usemtl Green
f 9/27/6 11/28/6 5/25/6 6/24/6
usemtl blue
f 8/29/6 7/30/6 11/28/6 9/27/6
o Cone
v 0.000000 0.723363 -1.000000
v 0.195090 0.723363 -0.980785
v 0.382683 0.723363 -0.923880
v 0.555570 0.723363 -0.831470
v 0.707107 0.723363 -0.707107
v 0.831470 0.723363 -0.555570
v 0.923880 0.723363 -0.382683
v 0.980785 0.723363 -0.195090
v 1.000000 0.723363 -0.000000
v 0.980785 0.723363 0.195090
v 0.923880 0.723363 0.382683
v 0.831470 0.723363 0.555570
v 0.707107 0.723363 0.707107
v 0.555570 0.723363 0.831470
v 0.382683 0.723363 0.923880
v 0.195090 0.723363 0.980785
v -0.000000 0.723363 1.000000
v -0.195091 0.723363 0.980785
v -0.382684 0.723363 0.923879
v -0.555571 0.723363 0.831469
v -0.707107 0.723363 0.707106
v -0.831470 0.723363 0.555570
v -0.923880 0.723363 0.382683
v 0.000000 2.723362 0.000000
v -0.980785 0.723363 0.195089
v -1.000000 0.723363 -0.000001
v -0.980785 0.723363 -0.195091
v -0.923879 0.723363 -0.382684
v -0.831469 0.723363 -0.555571
v -0.707106 0.723363 -0.707108
v -0.555569 0.723363 -0.831470
v -0.382682 0.723363 -0.923880
v -0.195089 0.723363 -0.980786
vt 0.250000 0.490000
vt 0.250000 0.250000
vt 0.296822 0.485388
vt 0.341844 0.471731
vt 0.383337 0.449553
vt 0.419706 0.419706
vt 0.449553 0.383337
vt 0.471731 0.341844
vt 0.485388 0.296822
vt 0.490000 0.250000
vt 0.485388 0.203178
vt 0.471731 0.158156
vt 0.449553 0.116663
vt 0.419706 0.080294
vt 0.383337 0.050447
vt 0.341844 0.028269
vt 0.296822 0.014612
vt 0.250000 0.010000
vt 0.203178 0.014612
vt 0.158156 0.028269
vt 0.116663 0.050447
vt 0.080294 0.080294
vt 0.050447 0.116663
vt 0.028269 0.158156
vt 0.014611 0.203179
vt 0.010000 0.250000
vt 0.014612 0.296822
vt 0.028269 0.341844
vt 0.050447 0.383337
vt 0.080295 0.419706
vt 0.116663 0.449553
vt 0.158156 0.471731
vt 0.203179 0.485389
vt 0.750000 0.490000
vt 0.796822 0.485388
vt 0.841844 0.471731
vt 0.883337 0.449553
vt 0.919706 0.419706
vt 0.949553 0.383337
vt 0.971731 0.341844
vt 0.985388 0.296822
vt 0.990000 0.250000
vt 0.985388 0.203178
vt 0.971731 0.158156
vt 0.949553 0.116663
vt 0.919706 0.080294
vt 0.883337 0.050447
vt 0.841844 0.028269
vt 0.796822 0.014612
vt 0.750000 0.010000
vt 0.703178 0.014612
vt 0.658156 0.028269
vt 0.616663 0.050447
vt 0.580294 0.080294
vt 0.550447 0.116663
vt 0.528269 0.158156
vt 0.514611 0.203179
vt 0.510000 0.250000
vt 0.514612 0.296822
vt 0.528269 0.341844
vt 0.550447 0.383337
vt 0.580295 0.419706
vt 0.616663 0.449553
vt 0.658156 0.471731
vt 0.703179 0.485389
vn 0.0878 0.4455 -0.8910
vn 0.2599 0.4455 -0.8567
vn 0.4220 0.4455 -0.7896
vn 0.5680 0.4455 -0.6921
vn 0.6921 0.4455 -0.5680
vn 0.7896 0.4455 -0.4220
vn 0.8567 0.4455 -0.2599
vn 0.8910 0.4455 -0.0878
vn 0.8910 0.4455 0.0878
vn 0.8567 0.4455 0.2599
vn 0.7896 0.4455 0.4220
vn 0.6921 0.4455 0.5680
vn 0.5680 0.4455 0.6921
vn 0.4220 0.4455 0.7896
vn 0.2599 0.4455 0.8567
vn 0.0878 0.4455 0.8910
vn -0.0878 0.4455 0.8910
vn -0.2599 0.4455 0.8567
vn -0.4220 0.4455 0.7896
vn -0.5680 0.4455 0.6921
vn -0.6921 0.4455 0.5680
vn -0.7896 0.4455 0.4220
vn -0.8567 0.4455 0.2599
vn -0.8910 0.4455 0.0878
vn -0.8910 0.4455 -0.0878
vn -0.8567 0.4455 -0.2599
vn -0.7896 0.4455 -0.4220
vn -0.6921 0.4455 -0.5680
vn -0.5680 0.4455 -0.6921
vn -0.4220 0.4455 -0.7896
vn -0.2599 0.4455 -0.8567
vn -0.0878 0.4455 -0.8910
vn 0.0000 -1.0000 0.0000
usemtl None
s off
f 19/31/7 42/32/7 20/33/7
f 20/33/8 42/32/8 21/34/8
f 21/34/9 42/32/9 22/35/9
f 22/35/10 42/32/10 23/36/10
f 23/36/11 42/32/11 24/37/11
f 24/37/12 42/32/12 25/38/12
f 25/38/13 42/32/13 26/39/13
f 26/39/14 42/32/14 27/40/14
f 27/40/15 42/32/15 28/41/15
f 28/41/16 42/32/16 29/42/16
f 29/42/17 42/32/17 30/43/17
f 30/43/18 42/32/18 31/44/18
f 31/44/19 42/32/19 32/45/19
f 32/45/20 42/32/20 33/46/20
f 33/46/21 42/32/21 34/47/21
f 34/47/22 42/32/22 35/48/22
f 35/48/23 42/32/23 36/49/23
f 36/49/24 42/32/24 37/50/24
f 37/50/25 42/32/25 38/51/25
f 38/51/26 42/32/26 39/52/26
f 39/52/27 42/32/27 40/53/27
f 40/53/28 42/32/28 41/54/28
f 41/54/29 42/32/29 43/55/29
f 43/55/30 42/32/30 44/56/30
f 44/56/31 42/32/31 45/57/31
f 45/57/32 42/32/32 46/58/32
f 46/58/33 42/32/33 47/59/33
f 47/59/34 42/32/34 48/60/34
f 48/60/35 42/32/35 49/61/35
f 49/61/36 42/32/36 50/62/36
f 50/62/37 42/32/37 51/63/37
f 51/63/38 42/32/38 19/31/38
f 19/64/39 20/65/39 21/66/39 22/67/39 23/68/39 24/69/39 25/70/39 26/71/39 27/72/39 28/73/39 29/74/39 30/75/39 31/76/39 32/77/39 33/78/39 34/79/39 35/80/39 36/81/39 37/82/39 38/83/39 39/84/39 40/85/39 41/86/39 43/87/39 44/88/39 45/89/39 46/90/39 47/91/39 48/92/39 49/93/39 50/94/39 51/95/39
